<svg width="630" height="500" viewBox="0 0 630 500" fill="none" xmlns="http://www.w3.org/2000/svg">
<g clip-path="url(#clip0_675_13)">
<rect width="630" height="500" fill="url(#paint0_radial_675_13)"/>
<rect x="80" y="262.89" width="314.188" height="67.1096" fill="#595959"/>
<path d="M532.055 312.278L535.706 321.178H542.024V262.89H532.055V312.278Z" fill="#595959"/>
<path d="M499.297 312.807L495.646 321.178H489.327V266.356H499.297V312.807Z" fill="#595959"/>
<path d="M503.143 312.356H528.779L532.055 321.178H500.437L503.143 312.356Z" fill="#595959"/>
<path d="M503.143 330H528.494L532.055 321.178H500.437L503.143 330Z" fill="#595959"/>
<rect x="489.327" y="273.918" width="11.0274" height="52.6969" transform="rotate(-90 489.327 273.918)" fill="#595959"/>
<rect x="430.933" y="273.918" width="11.0274" height="52.6969" transform="rotate(-90 430.933 273.918)" fill="#595959"/>
<path d="M440.903 312.807L437.252 321.178H430.934V266.356H440.903V312.807Z" fill="#595959"/>
<path d="M444.748 312.356H470.384L473.66 321.178H442.042L444.748 312.356Z" fill="#595959"/>
<path d="M444.748 330H470.1L473.66 321.178H442.042L444.748 330Z" fill="#595959"/>
<path d="M473.66 312.278L477.311 321.178H483.63V262.89H473.66V312.278Z" fill="#595959"/>
<path d="M415.267 273.09L411.616 262.89H405.297V329.685H415.267V273.09Z" fill="#595959"/>
<rect x="504.994" y="240.521" width="9.96969" height="58.2877" transform="rotate(-180 504.994 240.521)" fill="#595959"/>
<path d="M532.804 188.849L542.024 184.811V177.822H481.637V188.849H532.804Z" fill="#595959"/>
<rect x="419.538" y="236.11" width="9.96969" height="58.2877" transform="rotate(-180 419.538 236.11)" fill="#595959"/>
<path d="M463.869 188.849L473.09 184.811V177.822H412.702V188.849H463.869Z" fill="#595959"/>
<path d="M463.869 225.082L473.09 229.12V236.11H412.702V225.082H463.869Z" fill="#595959"/>
<rect x="347.473" y="236.11" width="9.96969" height="58.2877" transform="rotate(-180 347.473 236.11)" fill="#595959"/>
<path d="M391.804 188.849L401.024 184.811V177.822H340.637V188.849H391.804Z" fill="#595959"/>
<path d="M391.804 225.082L401.024 229.12V236.11H340.637V225.082H391.804Z" fill="#595959"/>
<path d="M355.021 197.986H380.658L383.934 206.808H352.315L355.021 197.986Z" fill="#595959"/>
<path d="M355.021 215.63H380.373L383.934 206.808H352.315L355.021 215.63Z" fill="#595959"/>
<rect x="328.957" y="225.082" width="11.0274" height="52.6969" transform="rotate(90 328.957 225.082)" fill="#595959"/>
<rect x="276.261" y="209.014" width="9.96969" height="21.7397" fill="#595959"/>
<rect x="318.988" y="177.822" width="9.96969" height="58.2877" fill="#595959"/>
<rect x="215.018" y="188.849" width="11.0274" height="52.6969" transform="rotate(-90 215.018 188.849)" fill="#595959"/>
<path d="M257.745 227.209L261.396 236.11H267.715V177.822H257.745V227.209Z" fill="#595959"/>
<path d="M224.987 227.739L221.336 236.11H215.018V181.288H224.987V227.739Z" fill="#595959"/>
<path d="M228.833 244.931H254.185L257.745 236.11H226.127L228.833 244.931Z" fill="#595959"/>
<path d="M228.833 227.288H254.469L257.745 236.11H226.127L228.833 227.288Z" fill="#595959"/>
<rect x="156.624" y="188.849" width="11.0274" height="52.6969" transform="rotate(-90 156.624 188.849)" fill="#595959"/>
<rect x="209.321" y="204.918" width="9.96969" height="21.7397" transform="rotate(-180 209.321 204.918)" fill="#595959"/>
<rect x="166.594" y="236.11" width="9.96969" height="58.2877" transform="rotate(-180 166.594 236.11)" fill="#595959"/>
<rect x="80" y="179.082" width="12.5333" height="80.9726" fill="#595959"/>
<path d="M98.2305 189.479V178.137H150.927V189.479H98.2305Z" fill="#595959"/>
<path d="M150.927 231.541L143.521 239.575V186.959H150.927V231.541Z" fill="#595959"/>
<path d="M106.836 239.575L100.225 235.537V228.548H143.522V239.575H106.836Z" fill="#595959"/>
<rect x="87.9756" y="254.068" width="314.188" height="67.1096" fill="#D9D9D9"/>
<path d="M540.029 303.456L543.68 312.356H549.999V254.068H540.029V303.456Z" fill="#D9D9D9"/>
<path d="M507.271 303.985L503.621 312.356H497.302V257.534H507.271V303.985Z" fill="#D9D9D9"/>
<path d="M511.117 303.534H536.754L540.029 312.356H508.411L511.117 303.534Z" fill="#D9D9D9"/>
<path d="M511.117 321.178H536.469L540.029 312.356H508.411L511.117 321.178Z" fill="#D9D9D9"/>
<rect x="497.302" y="265.096" width="11.0274" height="52.6969" transform="rotate(-90 497.302 265.096)" fill="#D9D9D9"/>
<rect x="438.907" y="265.096" width="11.0274" height="52.6969" transform="rotate(-90 438.907 265.096)" fill="#D9D9D9"/>
<path d="M448.877 303.985L445.226 312.356H438.907V257.534H448.877V303.985Z" fill="#D9D9D9"/>
<path d="M452.723 303.534H478.359L481.635 312.356H450.017L452.723 303.534Z" fill="#D9D9D9"/>
<path d="M452.723 321.178H478.074L481.635 312.356H450.017L452.723 321.178Z" fill="#D9D9D9"/>
<path d="M481.635 303.456L485.286 312.356H491.604V254.068H481.635V303.456Z" fill="#D9D9D9"/>
<path d="M423.241 264.268L419.59 254.068H413.272V320.863H423.241V264.268Z" fill="#D9D9D9"/>
<rect x="512.969" y="231.699" width="9.96969" height="58.2877" transform="rotate(-180 512.969 231.699)" fill="#D9D9D9"/>
<path d="M540.778 180.027L549.999 175.989V169H489.611V180.027H540.778Z" fill="#D9D9D9"/>
<rect x="427.515" y="227.288" width="9.96969" height="58.2877" transform="rotate(-180 427.515 227.288)" fill="#D9D9D9"/>
<path d="M471.846 180.027L481.066 175.989V169H420.679V180.027H471.846Z" fill="#D9D9D9"/>
<path d="M471.846 216.26L481.066 220.298V227.288H420.679V216.26H471.846Z" fill="#D9D9D9"/>
<rect x="355.447" y="227.288" width="9.96969" height="58.2877" transform="rotate(-180 355.447 227.288)" fill="#D9D9D9"/>
<path d="M399.778 180.027L408.999 175.989V169H348.611V180.027H399.778Z" fill="#D9D9D9"/>
<path d="M399.778 216.26L408.999 220.298V227.288H348.611V216.26H399.778Z" fill="#D9D9D9"/>
<path d="M362.996 189.164H388.632L391.908 197.986H360.29L362.996 189.164Z" fill="#D9D9D9"/>
<path d="M362.996 206.808H388.348L391.908 197.986H360.29L362.996 206.808Z" fill="#D9D9D9"/>
<rect x="336.933" y="216.26" width="11.0274" height="52.6969" transform="rotate(90 336.933 216.26)" fill="#D9D9D9"/>
<rect x="284.235" y="200.192" width="9.96969" height="21.7397" fill="#D9D9D9"/>
<rect x="326.963" y="169" width="9.96969" height="58.2877" fill="#D9D9D9"/>
<rect x="222.993" y="180.027" width="11.0274" height="52.6969" transform="rotate(-90 222.993 180.027)" fill="#D9D9D9"/>
<path d="M265.721 218.387L269.372 227.288H275.69V169H265.721V218.387Z" fill="#D9D9D9"/>
<path d="M232.963 218.917L229.312 227.288H222.993V172.466H232.963V218.917Z" fill="#D9D9D9"/>
<path d="M236.809 236.11H262.16L265.721 227.288H234.103L236.809 236.11Z" fill="#D9D9D9"/>
<path d="M236.809 218.466H262.445L265.721 227.288H234.103L236.809 218.466Z" fill="#D9D9D9"/>
<rect x="164.6" y="180.027" width="11.0274" height="52.6969" transform="rotate(-90 164.6 180.027)" fill="#D9D9D9"/>
<rect x="217.296" y="196.096" width="9.96969" height="21.7397" transform="rotate(-180 217.296 196.096)" fill="#D9D9D9"/>
<rect x="174.569" y="227.288" width="9.96969" height="58.2877" transform="rotate(-180 174.569 227.288)" fill="#D9D9D9"/>
<rect x="87.9756" y="170.26" width="12.5333" height="80.9726" fill="#D9D9D9"/>
<path d="M106.206 180.658V169.315H158.903V180.658H106.206Z" fill="#D9D9D9"/>
<path d="M158.902 222.719L151.496 230.753V178.137H158.902V222.719Z" fill="#D9D9D9"/>
<path d="M114.811 230.753L108.2 226.715V219.726H151.497V230.753H114.811Z" fill="#D9D9D9"/>
<path d="M480.438 482.968L404.518 482.524L434.814 444.985L519.343 445.48L480.438 482.968Z" fill="#333941"/>
<path d="M481.095 465.939L405.176 465.495L435.471 427.957L520 428.451L481.095 465.939Z" fill="#404040"/>
<path d="M481.095 473.237L405.176 472.793L435.471 435.255L520 435.749L481.095 473.237Z" fill="#CCCCCC"/>
<path d="M365.402 482.968L289.482 482.524L319.778 444.985L404.307 445.48L365.402 482.968Z" fill="#333941"/>
<path d="M366.06 465.94L290.14 465.496L320.436 427.957L404.965 428.451L366.06 465.94Z" fill="#404040"/>
<path d="M366.06 473.237L290.14 472.793L320.436 435.255L404.965 435.749L366.06 473.237Z" fill="#CCCCCC"/>
<path d="M250.367 484.59L174.448 484.146L204.744 446.607L289.273 447.101L250.367 484.59Z" fill="#333941"/>
<path d="M251.025 467.561L175.105 467.117L205.401 429.579L289.93 430.073L251.025 467.561Z" fill="#404040"/>
<path d="M251.025 474.859L175.105 474.415L205.401 436.876L289.93 437.371L251.025 474.859Z" fill="#CCCCCC"/>
<path d="M135.332 482.968L59.4128 482.524L89.7088 444.985L174.238 445.48L135.332 482.968Z" fill="#333941"/>
<path d="M135.989 465.939L60.07 465.495L90.366 427.957L174.895 428.451L135.989 465.939Z" fill="#404040"/>
<path d="M135.989 473.237L60.07 472.793L90.366 435.255L174.895 435.749L135.989 473.237Z" fill="#CCCCCC"/>
<path d="M20.2961 482.968L-55.6233 482.524L-25.3274 444.985L59.2015 445.48L20.2961 482.968Z" fill="#333941"/>
<path d="M20.9543 465.94L-54.9651 465.496L-24.6692 427.957L59.8597 428.451L20.9543 465.94Z" fill="#404040"/>
<path d="M20.9543 473.237L-54.9651 472.793L-24.6692 435.255L59.8597 435.749L20.9543 473.237Z" fill="#CCCCCC"/>
<path d="M657.403 68.968L581.483 68.5239L611.779 30.9853L696.308 31.4797L657.403 68.968Z" fill="#333941"/>
<path d="M658.061 51.9396L582.141 51.4956L612.437 13.9569L696.966 14.4513L658.061 51.9396Z" fill="#404040"/>
<path d="M658.061 59.2373L582.141 58.7933L612.437 21.2547L696.966 21.7491L658.061 59.2373Z" fill="#CCCCCC"/>
<path d="M542.368 70.5897L466.449 70.1457L496.745 32.6071L581.274 33.1015L542.368 70.5897Z" fill="#333941"/>
<path d="M543.026 53.5612L467.106 53.1171L497.402 15.5785L581.931 16.0729L543.026 53.5612Z" fill="#404040"/>
<path d="M543.026 60.8591L467.106 60.4151L497.402 22.8765L581.931 23.3709L543.026 60.8591Z" fill="#CCCCCC"/>
<path d="M427.333 68.968L351.414 68.524L381.71 30.9853L466.239 31.4797L427.333 68.968Z" fill="#333941"/>
<path d="M427.99 51.9394L352.071 51.4954L382.367 13.9568L466.896 14.4512L427.99 51.9394Z" fill="#404040"/>
<path d="M427.99 59.2374L352.071 58.7933L382.367 21.2547L466.896 21.7491L427.99 59.2374Z" fill="#CCCCCC"/>
<path d="M312.297 68.968L236.378 68.524L266.674 30.9853L351.202 31.4797L312.297 68.968Z" fill="#333941"/>
<path d="M312.955 51.9396L237.036 51.4956L267.332 13.957L351.861 14.4514L312.955 51.9396Z" fill="#404040"/>
<path d="M312.955 59.2374L237.036 58.7933L267.332 21.2547L351.861 21.7491L312.955 59.2374Z" fill="#CCCCCC"/>
<path d="M197.92 67.3462L122.001 66.9022L152.297 29.3636L236.825 29.858L197.92 67.3462Z" fill="#333941"/>
<path d="M197.92 53.5614L122.001 53.1173L152.297 15.5787L236.825 16.0731L197.92 53.5614Z" fill="#404040"/>
<path d="M197.92 60.8591L122.001 60.4151L152.297 22.8765L236.825 23.3709L197.92 60.8591Z" fill="#CCCCCC"/>
</g>
<defs>
<radialGradient id="paint0_radial_675_13" cx="0" cy="0" r="1" gradientUnits="userSpaceOnUse" gradientTransform="translate(315 250) rotate(77.4529) scale(681.27 858.4)">
<stop stop-color="#79D7FD"/>
<stop offset="0.384615" stop-color="#001736"/>
</radialGradient>
<clipPath id="clip0_675_13">
<rect width="630" height="500" fill="white"/>
</clipPath>
</defs>
</svg>
